<?xml version="1.0" encoding="UTF-8"?>
<svg width="200" height="200" viewBox="0 0 200 200" xmlns="http://www.w3.org/2000/svg">
    <!-- Background circle -->
    <circle cx="100" cy="100" r="90" fill="#3182CE" opacity="0.1"/>
    
    <!-- Main cloud -->
    <path d="M140 100c0-22-18-40-40-40-19 0-35 13-39 31-1 0-1 0-2 0-12 0-22 10-22 22s10 22 22 22h76c12 0 22-10 22-22s-10-22-22-22c0 0 0 0 0 0 3-6 5-13 5-21z" 
          fill="#3182CE" opacity="0.9"/>
    
    <!-- Overlapping cloud -->
    <path d="M120 120c0-16.6-13.4-30-30-30-14.3 0-26.3 9.8-29.3 23.3-0.8 0-1.5 0-1.5 0-9 0-16.5 7.5-16.5 16.5s7.5 16.5 16.5 16.5h57c9 0 16.5-7.5 16.5-16.5s-7.5-16.5-16.5-16.5c0 0 0 0 0 0 2.3-4.5 3.8-9.8 3.8-15.8z" 
          fill="#3182CE" opacity="0.7"/>
          
    <!-- Text "OVERCAST" -->
    <text x="100" y="180" font-family="Inter, sans-serif" font-size="24" font-weight="bold" text-anchor="middle" fill="#2D3748">OVERCAST</text>
</svg>
